<?xml version="1.0" encoding="iso-8859-1"?>
<!-- Generator: Adobe Illustrator 16.0.0, SVG Export Plug-In . SVG Version: 6.00 Build 0)  -->
<svg version="1.1" id="Capa_1" xmlns="http://www.w3.org/2000/svg" xmlns:xlink="http://www.w3.org/1999/xlink" x="0px" y="0px"
	 width="30px" height="30px" viewBox="0 0 401.625 401.625" style="enable-background:new 0 0 401.625 401.625;"
	 xml:space="preserve">
<g>
	<path stroke="#38c322" fill="#38c322" d="M325.125,0h-9.562H76.5H0c0,0,9.562,143.438,76.5,172.125l0,0c0,63.112,51.638,114.75,114.75,114.75V382.5h-76.5v19.125
		h172.125V382.5h-76.5v-95.625c63.112,0,114.75-51.638,114.75-114.75l0,0C392.062,143.438,401.625,0,401.625,0H325.125z
		 M76.5,151.087C32.513,118.575,21.038,19.125,21.038,19.125H76.5V151.087z M306,172.125c0,53.55-42.075,95.625-95.625,95.625
		H191.25c-53.55,0-95.625-42.075-95.625-95.625v-153H306V172.125z M325.125,151.087V19.125h55.463
		C380.588,19.125,369.112,118.575,325.125,151.087z"/>
</g>
</svg>
